# xmcd
#
# Track frame offsets: 
#        150
#        14602
#        44247
#        60372
#        77000
#        91871
#        112604
#        130475
#        149400
#        169582
#        189760
#        210592
#        228784
#        244552
#
# Disc length: 3871 seconds
#
# Revision: 0
# Processed by: cddbd v1.5.2PL0 Copyright (c) Steve Scherf et al.
# Submitted via: ExactAudioCopy v0.99pb4
#
DISCID=ad0f1d0e
DTITLE=Various Artist - This Is Brazil CD2 Music is Culture
DYEAR=2008
DGENRE=Latin
TTITLE0=Paula Santoro - The Girl From Ipanema (Garota de Ipanema)
TTITLE1=Azymuth - Roda Piao
TTITLE2=Arthur Verocai - Tupa Tupi
TTITLE3=Chico Salles - Arrastando O Pé: O Sanfoneiro - São João Bonito
TTITLE4=Clara Moreno feat. Celso Fonseca - Sabe Quem?
TTITLE5=Clube Do Balanço - Segura A Nega
TTITLE6=Os Ipanemas - Icarai
TTITLE7=Trio Mocotó - O Sorriso De Narinha
TTITLE8=Grupo Cabana - Desafinado
TTITLE9=Armando Marçal - Sorri Pra Nos 
TTITLE10=Nik Krassik and Joao Bosco - Pret A Porter De Tafeta
TTITLE11=Joao Padilla - Renata Renatinha
TTITLE12=Roge - Brasil Em Brasas
TTITLE13=Sururu Na Roda - Na Linha Do Mar - Beija-Me - Leviana - É Pre
TTITLE13=ciso Muito Amor
EXTD=
EXTT0=
EXTT1=
EXTT2=
EXTT3=
EXTT4=
EXTT5=
EXTT6=
EXTT7=
EXTT8=
EXTT9=
EXTT10=
EXTT11=
EXTT12=
EXTT13=
PLAYORDER=
